#!OML:ASF F:\VICON\USERDATA\INSTALL\rory3\rory3.ASF
:FULLY-SPECIFIED
:DEGREES
899
root -6.361 17.7643 6.85598 364.584 9.55498 -359.031
lowerback 4.83829 3.1966 -2.47183
upperback 1.17594 4.14209 0.427491
thorax -1.70371 2.07737 1.55659
lowerneck -18.3424 11.5547 -3.14792
upperneck 34.4148 21.4797 -6.49621
head 15.7945 7.7929 1.8426
rclavicle 7.8023e-015 -1.59028e-014
rhumerus -40.434 -10.3621 -74.1592
rradius 41.0452
rwrist 13.1276
rhand -24.043 0.110764
rfingers 7.12502
rthumb 2.43579 -29.8551
lclavicle 7.8023e-015 -1.59028e-014
lhumerus -32.9228 12.1882 76.4531
lradius 28.7362
lwrist -8.95535
lhand -10.7363 26.5817
lfingers 7.12502
lthumb 15.2745 55.9977
rfemur -20.7892 -12.0583 16.9222
rtibia 60.4397
rfoot -14.6023 -6.00423
rtoes -7.93918
lfemur -18.1103 -3.29745 -24.6158
ltibia 26.8038
lfoot -8.12954 -7.28143
ltoes -5.59095
900
root -6.39554 17.7603 6.91803 364.564 10.606 -359.168
lowerback 4.84539 3.15204 -2.49396
upperback 1.18933 4.0825 0.46476
thorax -1.69535 2.04768 1.61123
lowerneck -18.1589 11.589 -3.04096
upperneck 34.3224 21.5246 -6.62074
head 15.745 7.82871 1.7724
rclavicle -5.31749e-014 5.56597e-015
rhumerus -40.3173 -10.0649 -74.5429
rradius 40.9451
rwrist 12.7346
rhand -24.0499 0.289925
rfingers 7.12502
rthumb 2.42915 -29.676
lclavicle -5.31749e-014 5.56597e-015
lhumerus -32.8554 11.8203 76.7549
lradius 29.7235
lwrist -8.57672
lhand -10.6345 26.4151
lfingers 7.12502
lthumb 15.3726 55.8237
rfemur -20.8864 -11.1085 16.9332
rtibia 59.4924
rfoot -14.7799 -5.61354
rtoes -8.98885
lfemur -18.1384 -3.68121 -24.3033
ltibia 27.1463
lfoot -8.40623 -7.88505
ltoes -5.06552
901
root -6.43206 17.7551 6.98281 364.62 11.6818 -359.315
lowerback 4.71776 3.13483 -2.50544
upperback 1.19047 4.06325 0.49185
thorax -1.62484 2.03757 1.65412
lowerneck -18.2246 11.5277 -3.10436
upperneck 34.4882 21.4493 -6.46907
head 15.804 7.79793 1.8369
rclavicle 5.61567e-015 -3.57812e-015
rhumerus -40.2554 -9.50879 -75.0264
rradius 40.8895
rwrist 11.8369
rhand -24.5223 0.667064
rfingers 7.12502
rthumb 1.97292 -29.3036
lclavicle 5.61567e-015 -3.57812e-015
lhumerus -32.7291 11.3896 77.0538
lradius 30.688
lwrist -8.37569
lhand -10.6231 25.6745
lfingers 7.12502
lthumb 15.3835 55.0822
rfemur -21.0041 -10.0681 16.9635
rtibia 58.4211
rfoot -15.249 -5.03106
rtoes -9.49627
lfemur -18.2589 -3.93927 -23.9749
ltibia 27.4801
lfoot -8.60947 -8.60755
ltoes -4.8653
902
root -6.46957 17.7485 7.04514 364.731 12.7751 -359.41
lowerback 4.54801 3.11219 -2.56871
upperback 1.19439 4.03557 0.520743
thorax -1.53117 2.02313 1.73061
lowerneck -18.4747 11.3755 -3.27508
upperneck 34.7769 21.2789 -6.22694
head 15.9349 7.7062 1.95234
rclavicle 3.0911e-014 5.56597e-015
rhumerus -40.2452 -9.17962 -75.3856
rradius 41.0029
rwrist 11.3872
rhand -24.7787 0.635938
rfingers 7.12502
rthumb 1.72527 -29.3368
lclavicle 3.0911e-014 5.56597e-015
lhumerus -32.5181 10.6452 77.544
lradius 31.6527
lwrist -7.63798
lhand -11.1616 25.023
lfingers 7.12502
lthumb 14.8648 54.4697
rfemur -21.1443 -8.9334 16.8893
rtibia 57.2309
rfoot -15.8533 -4.37486
rtoes -8.82139
lfemur -18.4621 -4.17887 -23.7028
ltibia 27.803
lfoot -8.78995 -9.4035
ltoes -5.10535
903
root -6.50721 17.7437 7.10867 364.791 13.9241 -359.491
lowerback 4.43807 3.06012 -2.62199
upperback 1.20129 3.96739 0.532002
thorax -1.46369 1.98857 1.78266
lowerneck -18.3321 11.3369 -3.28735
upperneck 34.7176 21.2155 -6.23559
head 15.8711 7.69532 1.92594
rclavicle -3.78933e-014 2.70347e-014
rhumerus -40.2863 -9.16664 -75.6335
rradius 41.1037
rwrist 12.0056
rhand -24.7724 0.404674
rfingers 7.12502
rthumb 1.73137 -29.568
lclavicle -3.78933e-014 2.70347e-014
lhumerus -32.2429 9.83283 78.0757
lradius 32.4805
lwrist -6.37544
lhand -12.0856 25.2208
lfingers 7.12502
lthumb 13.9745 54.7312
rfemur -21.1604 -7.71714 16.752
rtibia 55.9072
rfoot -16.23 -3.8357
rtoes -7.67075
lfemur -18.6001 -4.41183 -23.4532
ltibia 28.0863
lfoot -8.94954 -10.1867
ltoes -5.23269
904
root -6.54614 17.7435 7.1706 364.775 15.157 -359.488
lowerback 4.49098 2.99037 -2.72951
upperback 1.22892 3.8683 0.512758
thorax -1.46537 1.93918 1.82705
lowerneck -18.1612 11.395 -3.26853
upperneck 34.6358 21.2887 -6.25914
head 15.7997 7.74681 1.9124
rclavicle 3.00413e-014 -1.03368e-014
rhumerus -40.231 -9.24146 -75.8772
rradius 40.9404
rwrist 13.0066
rhand -24.971 0.836798
rfingers 7.12502
rthumb 1.53959 -29.1374
lclavicle 3.00413e-014 -1.03368e-014
lhumerus -31.8841 9.24475 78.5239
lradius 33.1615
lwrist -5.33182
lhand -12.8146 25.3051
lfingers 7.12502
lthumb 13.2719 54.8625
rfemur -21.0254 -6.37449 16.5033
rtibia 54.464
rfoot -16.408 -3.48672
rtoes -8.25228
lfemur -18.644 -4.65299 -23.3061
ltibia 28.3679
lfoot -9.15784 -10.953
ltoes -5.56505
905
root -6.58686 17.743 7.22588 364.872 16.4545 -359.47
lowerback 4.5349 2.89679 -2.83717
upperback 1.20177 3.73703 0.494095
thorax -1.51637 1.87491 1.87304
lowerneck -18.1906 11.4015 -3.33943
upperneck 34.7396 21.309 -6.12512
head 15.8248 7.76054 1.98435
rclavicle -2.12451e-014 -2.56432e-014
rhumerus -40.1749 -9.17041 -76.1688
rradius 40.8713
rwrist 13.2747
rhand -25.1868 1.10176
rfingers 7.12502
rthumb 1.33116 -28.8738
lclavicle -2.12451e-014 -2.56432e-014
lhumerus -31.6402 8.80521 78.8687
lradius 33.9323
lwrist -4.6496
lhand -12.9294 25.0595
lfingers 7.12502
lthumb 13.1612 54.6241
rfemur -20.9934 -4.9885 16.2125
rtibia 52.9383
rfoot -16.687 -2.9528
rtoes -10.1247
lfemur -18.8331 -4.93343 -23.1493
ltibia 28.684
lfoot -9.34152 -11.7796
ltoes -5.61892
906
root -6.6263 17.7352 7.27901 365.059 17.6493 -359.517
lowerback 4.47349 2.84449 -2.83337
upperback 1.13365 3.6682 0.460788
thorax -1.54598 1.84168 1.84232
lowerneck -18.1938 11.3587 -3.36238
upperneck 34.8543 21.2506 -6.01828
head 15.8588 7.74363 2.02332
rclavicle 2.88486e-014 8.15017e-015
rhumerus -40.188 -9.08671 -76.4842
rradius 40.9685
rwrist 13.2742
rhand -25.4632 1.27992
rfingers 7.12502
rthumb 1.06419 -28.6972
lclavicle 2.88486e-014 8.15017e-015
lhumerus -31.513 8.17741 79.1936
lradius 34.9256
lwrist -4.07376
lhand -12.9285 25.8638
lfingers 7.12502
lthumb 13.1621 55.4284
rfemur -21.0292 -3.46088 15.9325
rtibia 51.3558
rfoot -16.9585 -2.05749
rtoes -10.526
lfemur -19.1157 -5.19012 -22.9089
ltibia 28.9824
lfoot -9.51324 -12.5947
ltoes -5.34815
907
root -6.66138 17.7202 7.33708 365.186 18.7551 -359.549
lowerback 4.36614 2.85074 -2.78714
upperback 1.11622 3.6809 0.404389
thorax -1.4981 1.84744 1.76308
lowerneck -18.1808 11.2624 -3.33336
upperneck 34.9231 21.1279 -6.01852
head 15.8917 7.69506 1.99954
rclavicle 6.85559e-014 -1.07344e-014
rhumerus -40.126 -9.09067 -76.7841
rradius 40.9581
rwrist 13.3349
rhand -25.8451 1.93911
rfingers 7.12502
rthumb 0.695375 -28.0395
lclavicle 6.85559e-014 -1.07344e-014
lhumerus -31.3169 7.47699 79.5544
lradius 35.9066
lwrist -3.70057
lhand -13.2876 27.1873
lfingers 7.12502
lthumb 12.8159 56.7739
rfemur -20.9408 -1.86933 15.5722
rtibia 49.737
rfoot -17.0166 -0.981233
rtoes -9.42067
lfemur -19.3322 -5.46585 -22.6979
ltibia 29.2485
lfoot -9.62554 -13.3186
ltoes -4.61445
908
root -6.69988 17.712 7.3974 365.306 19.9204 -359.487
lowerback 4.35047 2.84135 -2.87258
upperback 1.07002 3.66372 0.351735
thorax -1.53779 1.8401 1.75709
lowerneck -18.1708 11.1558 -3.4153
upperneck 35.0454 21.0036 -5.92977
head 15.922 7.64188 2.02684
rclavicle 3.80424e-014 -1.49089e-014
rhumerus -40.0502 -8.95907 -77.0635
rradius 40.8168
rwrist 13.3441
rhand -26.025 2.63282
rfingers 7.12502
rthumb 0.521572 -27.3463
lclavicle 3.80424e-014 -1.49089e-014
lhumerus -31.2025 6.87805 79.9133
lradius 36.8534
lwrist -3.34145
lhand -13.4791 27.3309
lfingers 7.12502
lthumb 12.6313 56.929
rfemur -20.8887 -0.217581 15.0678
rtibia 48.1025
rfoot -16.9568 0.0699526
rtoes -9.26132
lfemur -19.5276 -5.75029 -22.5803
ltibia 29.4943
lfoot -9.72249 -14.0655
ltoes -3.90702
909
root -6.74207 17.7116 7.45555 365.414 21.2073 -359.526
lowerback 4.3879 2.7707 -2.89104
upperback 0.99875 3.56693 0.360809
thorax -1.62856 1.79383 1.77865
lowerneck -17.9544 11.156 -3.43308
upperneck 35.0124 21.0334 -5.99934
head 15.868 7.66325 1.99091
rclavicle -5.69021e-015 -2.08724e-015
rhumerus -39.9646 -8.7678 -77.2922
rradius 40.6169
rwrist 13.6223
rhand -26.1617 2.98393
rfingers 7.12502
rthumb 0.38961 -26.9955
lclavicle -5.69021e-015 -2.08724e-015
lhumerus -31.1766 6.3283 80.2757
lradius 37.8439
lwrist -2.91203
lhand -13.395 27.0069
lfingers 7.12502
lthumb 12.7124 56.6
rfemur -20.8544 1.51919 14.638
rtibia 46.439
rfoot -16.7695 1.4835
rtoes -8.05462
lfemur -19.7027 -6.12705 -22.3224
ltibia 29.6966
lfoot -9.87344 -14.8056
ltoes -3.66585
910
root -6.78447 17.7051 7.5092 365.532 22.5097 -359.547
lowerback 4.3677 2.68753 -2.89976
upperback 0.993741 3.45643 0.354389
thorax -1.61663 1.73869 1.78489
lowerneck -17.8351 11.1996 -3.31935
upperneck 35.0173 21.1354 -6.14516
head 15.8875 7.70899 1.93114
rclavicle 2.48232e-014 6.26172e-015
rhumerus -39.8263 -8.53251 -77.6128
rradius 40.5427
rwrist 13.914
rhand -26.4717 2.87103
rfingers 7.12502
rthumb 0.0901286 -27.1087
lclavicle 2.48232e-014 6.26172e-015
lhumerus -30.9348 5.84561 80.6225
lradius 38.6883
lwrist -2.58182
lhand -13.2752 27.0839
lfingers 7.12502
lthumb 12.8279 56.6697
rfemur -20.7381 3.35266 14.1748
rtibia 44.774
rfoot -16.718 3.07773
rtoes -6.73273
lfemur -19.8571 -6.60087 -22.0555
ltibia 29.8151
lfoot -10.0188 -15.5283
ltoes -3.55373
911
root -6.82644 17.6985 7.56521 365.665 23.7804 -359.484
lowerback 4.25832 2.6494 -2.98992
upperback 1.05212 3.4058 0.325301
thorax -1.49621 1.71163 1.81558
lowerneck -17.8628 11.188 -3.31357
upperneck 35.0879 21.1513 -6.13686
head 15.9295 7.71473 1.94322
rclavicle 2.11457e-014 9.93923e-017
rhumerus -39.7222 -8.29458 -77.9464
rradius 40.6262
rwrist 13.9789
rhand -26.6904 2.84682
rfingers 7.12502
rthumb -0.121104 -27.1329
lclavicle 2.11457e-014 9.93923e-017
lhumerus -30.5104 5.44045 80.946
lradius 39.3122
lwrist -2.41648
lhand -13.0386 26.7711
lfingers 7.12502
lthumb 13.0559 56.3425
rfemur -20.5921 5.33274 13.5975
rtibia 43.1299
rfoot -16.7267 4.5538
rtoes -7.06808
lfemur -20.0049 -7.10606 -21.8611
ltibia 29.9332
lfoot -10.2018 -16.192
ltoes -3.45065
912
root -6.86721 17.7011 7.62511 365.769 25.0655 -359.494
lowerback 4.21669 2.62677 -3.02643
upperback 1.02882 3.37521 0.321556
thorax -1.4971 1.69683 1.83528
lowerneck -17.7872 11.13 -3.39956
upperneck 35.202 21.0742 -5.99715
head 15.9312 7.69427 1.99394
rclavicle -6.31141e-015 -5.36719e-015
rhumerus -39.7671 -8.14493 -78.151
rradius 40.7161
rwrist 14.1325
rhand -27.0976 3.25144
rfingers 7.12502
rthumb -0.514345 -26.7277
lclavicle -6.31141e-015 -5.36719e-015
lhumerus -30.2836 5.08423 81.2259
lradius 39.9613
lwrist -2.50011
lhand -12.6836 26.2836
lfingers 7.12502
lthumb 13.3982 55.8328
rfemur -20.5049 7.39105 13.0533
rtibia 41.5555
rfoot -16.5411 6.02838
rtoes -7.09635
lfemur -20.1739 -7.53829 -21.5869
ltibia 30.0998
lfoot -10.3097 -16.9705
ltoes -2.68078
